<svg width="726" height="774" viewBox="0 0 726 774" fill="none" xmlns="http://www.w3.org/2000/svg">
<path d="M726 340.265C726 152.59 573.815 0.689087 386.424 0.689087C334.465 0.689087 283.643 10.9104 236.227 31.3531C189.947 50.944 148.777 78.7689 113.287 114.26C77.7959 149.467 49.9713 190.92 30.3804 236.916C10.2216 284.616 0 335.154 0 387.397C0 439.639 10.2216 490.178 30.3804 537.878C49.9713 583.874 77.7959 625.043 113.287 660.534C148.777 696.025 190.231 723.85 236.227 743.441C283.643 763.599 334.466 773.821 386.708 773.821C436.963 773.821 484.947 764.167 528.955 746.848L499.711 673.027C464.788 686.939 426.742 694.605 386.708 694.605C304.653 694.605 227.425 662.522 169.504 604.601C111.583 546.68 79.4993 469.452 79.4993 387.397C79.4993 305.342 111.583 228.114 169.504 170.193C227.709 112.272 304.653 80.1885 386.708 80.1885C530.375 80.1885 646.784 196.598 646.784 340.265C646.784 393.075 630.885 442.479 603.628 483.648L536.053 317.267C526.116 292.849 514.191 256.223 469.331 256.223C424.47 256.223 412.545 293.133 402.892 317.267L340.712 470.871L257.237 260.198H169.504L273.421 516.299C283.927 542.137 295.567 577.344 340.712 577.344C385.856 577.344 397.213 542.137 407.719 516.299L469.331 364.115L531.227 516.299C543.72 547.815 557.064 577.344 598.233 577.344C627.477 577.344 645.933 558.604 656.154 546.396C699.879 489.326 726 417.777 726 340.265Z" fill="#4526CE"/>
</svg>
