<svg xmlns="http://www.w3.org/2000/svg" data-name="Layer 1" width="748.77499" height="601.62643" viewBox="0 0 748.77499 601.62643" xmlns:xlink="http://www.w3.org/1999/xlink"><g id="b260cf92-2bd5-4fcd-825b-b44be0dc1899" data-name="Group 223"><path id="b843f90d-c4df-4e2f-a156-ce9541eb3b1e-392" data-name="Path 2996" d="M651.6355,489.61825a9.4,9.4,0,0,0,7.986-11.994l27.174-19.41-16.194-6.236-23.322,19.388a9.448,9.448,0,0,0,4.357,18.252Z" transform="translate(-225.6125 -149.18678)" fill="#ffb7b7"/><path id="e3636758-7d48-4a96-a1fa-6d386b1b4589-393" data-name="Path 2997" d="M666.72546,476.83422l-9.015-15.4.191-.218,36.372-41.408,28.24-48.159,24.523,3.125.362,7.412-.073.111-38.961,58.567-.041.035Z" transform="translate(-225.6125 -149.18678)" fill="#3f3d56"/><path id="baa130ed-3ecb-48db-a86e-eda575f38db0-394" data-name="Path 2998" d="M786.89246,737.36922h-13.866l-6.6-53.491h20.468Z" transform="translate(-225.6125 -149.18678)" fill="#ffb7b7"/><path id="abe385ac-4f05-433e-b276-ac8b5ab6f7ce-395" data-name="Path 2999" d="M790.4295,750.81225h-44.716v-.566a17.405,17.405,0,0,1,17.4-17.4h27.314Z" transform="translate(-225.6125 -149.18678)" fill="#2f2e41"/><path id="e36b181c-85ec-4cd2-b637-be2252b66dd9-396" data-name="Path 3000" d="M667.53949,736.91624l-13.489-3.221,6.005-53.561,19.908,4.753Z" transform="translate(-225.6125 -149.18678)" fill="#ffb7b7"/><path id="fb7972ee-a107-4b5f-b003-4984de888e25-397" data-name="Path 3001" d="M667.85748,750.81222l-43.494-10.386.131-.55a17.406,17.406,0,0,1,20.971-12.887h0l26.564,6.343Z" transform="translate(-225.6125 -149.18678)" fill="#2f2e41"/><path id="f21104d9-4c40-4f62-bf09-f78239804bca-398" data-name="Path 3002" d="M721.43646,347.19726v-23.344a31.28049,31.28049,0,0,1,62.561,0v23.344a4.207,4.207,0,0,1-4.2,4.2H725.63849A4.207,4.207,0,0,1,721.43646,347.19726Z" transform="translate(-225.6125 -149.18678)" fill="#2f2e41"/><circle id="a10709e7-9d95-4087-9d25-b0d1082914a1" data-name="Ellipse 572" cx="519.385" cy="178.92445" r="22.934" fill="#ffb7b7"/><path id="a7da3bf7-cbc5-4b77-9456-b3696620f068-399" data-name="Path 3003" d="M714.0365,325.72021a24.772,24.772,0,0,1,24.744-24.744h4.669a24.772,24.772,0,0,1,24.744,24.744v.467h-9.867l-3.365-9.423-.673,9.423h-5.1l-1.7-4.754-.34,4.754H714.0365Z" transform="translate(-225.6125 -149.18678)" fill="#2f2e41"/><path id="a50cdc78-563b-4e85-8635-d3be9a4df01e-400" data-name="Path 3004" d="M758.37054,449.15224l-58.392-2.222-3.264-38.2c-2.517-6.992-2.558-13-.121-17.844a17.862,17.862,0,0,1,9.861-8.523l12.777-15.432a17.391,17.391,0,0,1,13.5-6.294l33.2.227c.8-.481,5.654-2.948,15.227,1.2,10.383,4.5,7.972,20.134,7.946,20.291l-.024.147-.114.1-22.082,18.6Z" transform="translate(-225.6125 -149.18678)" fill="#3f3d56"/><path id="f45d581f-fa36-4b94-af9d-9c6c8fbc2b7e-401" data-name="Path 3005" d="M700.44751,442.82523l-27.62,50.358-20.941,229.1,23.66,7.226,41.88-179.218,48.6,174.133,28.366.707-19.311-200.95-16.876-77.8Z" transform="translate(-225.6125 -149.18678)" fill="#2f2e41"/><path id="b2eacdd2-0f38-41e0-9c1d-fed48b17417a-402" data-name="Path 3006" d="M708.60651,457.94125c-.585-.484-1.212.336-1.4,1.833l-5.745,45.4c-.189,1.5.131,3.1.715,3.591l71.448,59.332c.585.483,1.212-.336,1.4-1.833l5.745-45.4c.189-1.5-.131-3.1-.715-3.59Z" transform="translate(-225.6125 -149.18678)" fill="#32accd"/><path id="eaf2948c-8380-4d0a-863d-b2557c95df9c-403" data-name="Path 3011" d="M774.2395,524.35024a9.39994,9.39994,0,0,0-.495-14.4l10.783-31.605-16.8,4.364-7.65607,29.342a9.448,9.448,0,0,0,14.172,12.3Z" transform="translate(-225.6125 -149.18678)" fill="#ffb7b7"/><path id="aa7e7132-63b7-4cde-9eb8-1c9a5bd8e859-404" data-name="Path 3012" d="M779.05652,505.17025l-16.3-7.264,5.476-55.133-5.1-55.594,21.76294-11.745,4.611,5.814v.132l2.443,70.3-.013.053Z" transform="translate(-225.6125 -149.18678)" fill="#3f3d56"/></g><circle id="a104c3ba-2391-4ae4-a2ed-0c7a4ec32b98" data-name="Ellipse 574" cx="169.96802" cy="174.95043" r="38.273" fill="#32accd"/><path d="M403.49864,351.97345A39.2732,39.2732,0,1,1,442.77159,312.7,39.31772,39.31772,0,0,1,403.49864,351.97345Zm0-76.54639A37.2732,37.2732,0,1,0,440.77159,312.7,37.31533,37.31533,0,0,0,403.49864,275.42706Z" transform="translate(-225.6125 -149.18678)" fill="#3f3d56"/><path d="M381.32148,305.6095a3.37043,3.37043,0,0,1-2.72744.40762l-30.47672-7.62692A25.16757,25.16757,0,0,1,325.47,308.71837a25.10976,25.10976,0,1,1,21.05494-41.6731,25.215,25.215,0,0,1,6.25518,18.59835l28.20517,13.83608a3.41658,3.41658,0,0,1,1.74556,4.34444A3.64027,3.64027,0,0,1,381.32148,305.6095Z" transform="translate(-225.6125 -149.18678)" fill="#3f3d56"/><circle id="bdea7793-cc89-4ee4-bc41-db390ac25cb6" data-name="Ellipse 576" cx="102.1137" cy="134.50561" r="11.438" fill="#32accd"/><path d="M420.55307,231.97424a3.6231,3.6231,0,0,1-2.334.54608,3.41721,3.41721,0,0,1-3.12915-3.48326l.02784-31.41761a25.10911,25.10911,0,0,1-10.47839-38.77067A25.10906,25.10906,0,0,1,445.146,188.49051a25.206,25.206,0,0,1-16.53213,10.56877l-6.60228,30.71614A3.38239,3.38239,0,0,1,420.55307,231.97424Z" transform="translate(-225.6125 -149.18678)" fill="#e6e6e6"/><circle id="ac23f470-f1fd-4c0a-b28f-2bfd55c49f5f" data-name="Ellipse 577" cx="198.83216" cy="25.09255" r="11.438" fill="#ccc"/><path d="M544.97373,306.671a25.20242,25.20242,0,0,1-22.48431,2.501,25.21057,25.21057,0,0,1-14.254-13.48426l-31.39951,1.02564a3.5001,3.5001,0,0,1-.95784-6.8951l30.489-7.57293a25.10861,25.10861,0,0,1,35.08509-19.547,25.11277,25.11277,0,0,1,3.52155,43.97258Z" transform="translate(-225.6125 -149.18678)" fill="#e6e6e6"/><circle id="aced7de5-95df-4d5e-8d90-342903f1c606" data-name="Ellipse 578" cx="305.65888" cy="136.46239" r="11.438" fill="#ccc"/><path d="M456.368,407.17357a25.10953,25.10953,0,0,1-28.96581-40.97274l-8.59085-30.21912.48074-.13668-.48074.13668a3.49978,3.49978,0,0,1,6.45806-2.59741l14.72426,27.75124a25.1699,25.1699,0,0,1,22.82955,9.91828,25.11266,25.11266,0,0,1-6.37416,36.06705Z" transform="translate(-225.6125 -149.18678)" fill="#3f3d56"/><circle id="efff25db-6063-46bc-8769-3c9fa49c679b" data-name="Ellipse 579" cx="217.10338" cy="236.932" r="11.438" fill="#32accd"/><path d="M311.99436,426.23571a25.12,25.12,0,1,1,1.94188-40.76711l27.24284-15.6459a3.49991,3.49991,0,0,1,4.0832,5.63759l-23.36591,21.00118a25.19564,25.19564,0,0,1-9.902,29.77424Z" transform="translate(-225.6125 -149.18678)" fill="#e6e6e6"/><circle id="b7a6057d-d1c4-409a-903f-7471ccbd4961" data-name="Ellipse 584" cx="71.95619" cy="256.45738" r="11.438" fill="#ccc"/><path id="a964de07-9e14-4299-908e-8aea823fdb33-405" data-name="Path 2960" d="M226.85951,750.81322h746.281a1.247,1.247,0,0,0,0-2.494h-746.281a1.247,1.247,0,0,0,0,2.494Z" transform="translate(-225.6125 -149.18678)" fill="#ccc"/><g id="b2bc0a60-0311-4cde-abcb-a5800f320ca8" data-name="Group 58"><path id="be932d9d-31a5-4040-8d3a-b30c81a41453-406" data-name="Path 438" d="M278.14453,714.81921a16.86808,16.86808,0,0,0,16.29-2.87c5.706-4.789,7.494-12.678,8.95-19.984l4.305-21.608-9.013,6.206c-6.482,4.463-13.11,9.069-17.6,15.534s-6.447,15.289-2.841,22.285" transform="translate(-225.6125 -149.18678)" fill="#e6e6e6"/><path id="bf6519ca-44fa-4a1e-8245-55bfa3a5f4dd-407" data-name="Path 439" d="M279.53552,742.48321c-1.135-8.265-2.3-16.636-1.505-24.99.707-7.419,2.97-14.665,7.578-20.607a34.28065,34.28065,0,0,1,8.795-7.97c.879-.555,1.689.839.813,1.391a32.589,32.589,0,0,0-12.89,15.555c-2.806,7.138-3.257,14.919-2.773,22.5.292,4.586.912,9.141,1.537,13.691a.835.835,0,0,1-.563.991.811.811,0,0,1-.991-.563Z" transform="translate(-225.6125 -149.18678)" fill="#f2f2f2"/><path id="bc5fe27d-4a3b-42f9-a167-72a86e254dcc-408" data-name="Path 442" d="M287.70151,729.22021a12.417,12.417,0,0,0,10.82,5.584c5.477-.26,10.043-4.083,14.154-7.712l12.158-10.734-8.046-.385c-5.786-.277-11.722-.535-17.234,1.249s-10.594,6.079-11.6,11.784" transform="translate(-225.6125 -149.18678)" fill="#e6e6e6"/><path id="f74e8047-25f3-41ff-822a-fe23ad51caa4-409" data-name="Path 443" d="M276.3295,747.23418c5.461-9.664,11.8-20.4,23.115-23.836a25.79246,25.79246,0,0,1,9.723-1c1.032.089.775,1.68-.256,1.591a23.96293,23.96293,0,0,0-15.516,4.1,40.3293,40.3293,0,0,0-10.664,11.508c-1.766,2.689-3.348,5.492-4.93,8.292C277.2955,748.78521,275.81848,748.13921,276.3295,747.23418Z" transform="translate(-225.6125 -149.18678)" fill="#f2f2f2"/></g><g id="b2aed082-565e-46c2-a27d-03e098432d58" data-name="Group 222"><path id="b9bce9a2-00ae-4a65-ae59-7035543b092c-410" data-name="Path 2961" d="M895.83253,716.28948a17.875,17.875,0,0,1-17.40762-2.0448c-6.327-4.71874-8.699-12.95651-10.68377-20.59531L861.87393,671.051l9.91253,6.01784c7.12956,4.32646,14.41976,8.79746,19.56022,15.36473s7.75015,15.78315,4.35933,23.40148" transform="translate(-225.6125 -149.18678)" fill="#32accd"/><path id="bdcddb59-4389-453b-946d-a62e607fd832-411" data-name="Path 2962" d="M894.90456,746.93958c1.261-15.92912,2.347-33.84476-8.39837-47.05252a37.1308,37.1308,0,0,0-10.79518-9.02442c-1.30352-.72485-2.2765,1.38111-.97519,2.10566a34.495,34.495,0,0,1,15.21145,17.3878c2.82568,7.077,3.55573,14.75728,3.463,22.318-.05723,4.63067-.42585,9.24912-.78836,13.86566C892.50269,748.013,894.78778,748.4289,894.90456,746.93958Z" transform="translate(-225.6125 -149.18678)" fill="#f2f2f2"/></g></svg>